<svg width="12" height="12" viewBox="0 0 12 12" fill="none" xmlns="http://www.w3.org/2000/svg">
<path fill-rule="evenodd" clip-rule="evenodd" d="M3.66678 1.91663C3.66678 0.950128 4.45028 0.166626 5.41678 0.166626H6.58345C7.54994 0.166626 8.33345 0.950128 8.33345 1.91663V2.59954C8.5159 2.53505 8.71224 2.49996 8.91678 2.49996H10.0834C11.0499 2.49996 11.8334 3.28346 11.8334 4.24996V10.0833C11.8334 11.0498 11.0499 11.8333 10.0834 11.8333H1.91678C0.95028 11.8333 0.166779 11.0498 0.166779 10.0833V6.58329C0.166779 5.6168 0.95028 4.83329 1.91678 4.83329H3.08345C3.28798 4.83329 3.48432 4.86838 3.66678 4.93287V1.91663ZM4.83345 10.6666H7.16678V1.91663C7.16678 1.59446 6.90561 1.33329 6.58345 1.33329H5.41678C5.09461 1.33329 4.83345 1.59446 4.83345 1.91663V10.6666ZM8.33345 10.6666H10.0834C10.4056 10.6666 10.6668 10.4055 10.6668 10.0833V4.24996C10.6668 3.92779 10.4056 3.66663 10.0834 3.66663H8.91678C8.59461 3.66663 8.33345 3.92779 8.33345 4.24996V10.6666ZM3.66678 10.6666V6.58329C3.66678 6.26113 3.40561 5.99996 3.08345 5.99996H1.91678C1.59461 5.99996 1.33345 6.26113 1.33345 6.58329V10.0833C1.33345 10.4055 1.59461 10.6666 1.91678 10.6666H3.66678Z" fill="#71717A"/>
</svg>
