<svg width="19" height="18" viewBox="0 0 19 18" fill="none" xmlns="http://www.w3.org/2000/svg">
<path d="M9.54098 8.98304V8.72847V5.06667C9.54098 5.04404 9.52263 5.02569 9.50001 5.02569C9.47738 5.02569 9.45903 5.04404 9.45903 5.06667V9C9.45903 9.01087 9.46335 9.02129 9.47104 9.02898L12.0932 11.6512L9.54098 8.98304ZM9.54098 8.98304L9.72098 9.16304M9.54098 8.98304L9.72098 9.16304M9.72098 9.16304L12.1512 11.5932M9.72098 9.16304L12.1512 11.5932M12.1512 11.5932C12.1512 11.5932 12.1512 11.5933 12.1512 11.5933M12.1512 11.5932L12.1512 11.5933M12.1512 11.5933C12.1672 11.6092 12.1672 11.6352 12.1512 11.6512M12.1512 11.5933L12.1512 11.6512M12.1512 11.6512C12.1352 11.6672 12.1093 11.6672 12.0933 11.6512L12.1512 11.6512ZM2.74784 5.43227L2.26387 6.33679H3.28973H5.56667C5.5893 6.33679 5.60764 6.35514 5.60764 6.37776C5.60764 6.40039 5.5893 6.41874 5.56667 6.41874H2.08951L2.82345 5.12496C3.71446 3.55432 5.69078 0.89565 9.50003 0.89565C14.4432 0.89565 17.6043 4.94761 17.6043 8.99996C17.6043 13.0523 14.4432 17.1043 9.50003 17.1043C7.12282 17.1043 5.15698 16.1668 3.75706 14.7424C3.00544 13.9776 2.41712 13.0727 2.01571 12.0972L2.01569 12.0972C2.00711 12.0763 2.01705 12.0524 2.03799 12.0438L2.03801 12.0438C2.05892 12.0352 2.08286 12.0451 2.09147 12.0661L2.09148 12.0661C2.489 13.0319 3.07152 13.9279 3.81551 14.6849C5.20063 16.0944 7.14566 17.0223 9.50003 17.0223C14.392 17.0223 17.5224 13.0132 17.5224 8.99996C17.5224 4.98671 14.392 0.9776 9.50003 0.9776C5.49471 0.9776 3.53716 3.95705 2.74784 5.43227ZM1.67431 6.41874H1.63334C1.61071 6.41874 1.59237 6.40039 1.59237 6.37776V2.44443C1.59237 2.42181 1.61071 2.40346 1.63334 2.40346C1.65596 2.40346 1.67431 2.42181 1.67431 2.44443V4.82171V6.41874Z" fill="#A9A9A9" stroke="#585858" stroke-width="1.22917"/>
</svg>
